<svg xmlns="http://www.w3.org/2000/svg" width="84" height="84">
    <g data-name="Grupo 8391" transform="translate(-4256 -199)">
        <circle cx="41.5" cy="41.5" r="41.5" fill="#e6e6e6" data-name="Elipse 85" transform="translate(4256 199)"/>
        <g data-name="Grupo 53" transform="translate(2561 -57)">
            <ellipse cx="29.5" cy="30" fill="#0071b6" data-name="Elipse 92" rx="29.5" ry="30" transform="translate(1707 267)"/>
            <g data-name="Layer 1">
                <g fill="#fff" data-name="Grupo 9" transform="translate(1718.037 278.845)">
                    <path d="M20.05 2.492a2.067 2.067 0 0 0-2.958 0c-3.411 3.474-11.101 12.624-5.148 19.434a8.761 8.761 0 0 0 15.432-5.742c0-5.5-4.821-11.127-7.325-13.694Zm2.744 17.281a5.906 5.906 0 0 1-3.121 1.649.952.952 0 0 1-1.108-.944.931.931 0 0 1 .768-.919 4.1 4.1 0 0 0 3.222-3.121.945.945 0 0 1 1.85.39 5.838 5.838 0 0 1-1.611 2.933Z" data-name="Caminho 29"/>
                    <path d="M4.191 11.001A3.461 3.461 0 1 1 7.65 7.538a3.459 3.459 0 0 1-3.459 3.463Zm0-5.035a1.573 1.573 0 1 0 1.574 1.572 1.574 1.574 0 0 0-1.574-1.572Z" data-name="Caminho 30"/>
                    <circle cx=".944" cy=".944" r=".944" data-name="Elipse 18" transform="translate(29.264 22.681)"/>
                    <circle cx=".944" cy=".944" r=".944" data-name="Elipse 19" transform="translate(.73 33.342)"/>
                    <path d="M6.407 6.192 5.035 4.896a18.712 18.712 0 0 1 6.47-4.468.95.95 0 0 1 1.23.566.94.94 0 0 1-.551 1.18 16.819 16.819 0 0 0-5.777 3.99Z" data-name="Caminho 31"/>
                    <path d="M18.6 36.174A18.577 18.577 0 0 1 2.089 9.037l1.674.868A16.681 16.681 0 1 0 24.028 1.85a.953.953 0 0 1-.617-1.158.936.936 0 0 1 1.2-.642A18.624 18.624 0 0 1 36.8 21.045a18.706 18.706 0 0 1-18.21 15.116Z" data-name="Caminho 32"/>
                    <path d="M6.394 30.259c1.4-.327 1.661-1.473 3.512-1.473 2.165 0 2.165 1.561 4.342 1.561s2.165-1.561 4.33-1.561 2.165 1.561 4.33 1.561 2.165-1.561 4.33-1.561c1.926 0 2.14 1.246 3.688 1.51a18.086 18.086 0 0 1-12.36 4.934 17.3 17.3 0 0 1-12.172-4.971Z" data-name="Caminho 33"/>
                </g>
            </g>
        </g>
    </g>
</svg>