<svg xmlns="http://www.w3.org/2000/svg" width="84" height="84">
    <g data-name="Grupo 8386" transform="translate(-3136 -199)">
        <circle cx="41.5" cy="41.5" r="41.5" fill="#e6e6e6" data-name="Elipse 84" transform="translate(3136 199)"/>
        <circle cx="29.5" cy="29.5" r="29.5" fill="#0071b6" data-name="Elipse 10" transform="translate(3148 211)"/>
        <g data-name="Camada 1">
            <g fill="#fff" data-name="Grupo 7">
                <path d="M3176.556 222.183h2.389c.094.023.185.052.28.069a2.094 2.094 0 0 1 2.05 2.06c.072.463.1.934.131 1.4a1.4 1.4 0 0 0 .555 1.167 9.585 9.585 0 0 0 1.649.872 1.673 1.673 0 0 0 1.505-.15 7.124 7.124 0 0 0 1.111-.856 2.192 2.192 0 0 1 3.337-.071c.617.557 1.191 1.162 1.759 1.77a2.427 2.427 0 0 1 .125 3.434c-.3.376-.631.73-.939 1.1a1.507 1.507 0 0 0-.2 1.753c.232.477.464.955.66 1.448a1.009 1.009 0 0 0 1.02.7 13.306 13.306 0 0 1 1.764.15 2.277 2.277 0 0 1 1.9 1.575c.068.192.11.393.164.591v2.968c-.049.2-.092.4-.148.595a2.085 2.085 0 0 1-2.147 1.643c-.193 0-.386 0-.579.012a2.478 2.478 0 0 0-2.3 1.541 9.062 9.062 0 0 0-.421 1.305 1.209 1.209 0 0 0 .328 1.2 12.946 12.946 0 0 1 1.074 1.315 2.347 2.347 0 0 1-.2 3.116q-.824.912-1.716 1.762a2.315 2.315 0 0 1-3.526.017c-.3-.275-.6-.558-.907-.83a1.373 1.373 0 0 0-1.669-.221c-.515.262-1.045.494-1.57.739a.9.9 0 0 0-.542.83c-.021.422-.048.843-.071 1.264a2.655 2.655 0 0 1-2.037 2.8h-3.261a2.426 2.426 0 0 1-2.028-2.281c-.066-.55-.105-1.1-.138-1.656-.042-.7-.14-.821-.82-1.041a4.343 4.343 0 0 1-.927-.394 1.616 1.616 0 0 0-2.445.345 2.907 2.907 0 0 1-.459.459c-.747.511-1.544 1.033-2.474.6a6.384 6.384 0 0 1-3.439-3.94.953.953 0 0 1 .086-.868 15.765 15.765 0 0 1 1.008-1.484 2.3 2.3 0 0 0 .49-2.48 8.753 8.753 0 0 0-.508-1.076 1.8 1.8 0 0 0-1.6-.946 17.97 17.97 0 0 1-1.01-.072 2.179 2.179 0 0 1-2.155-1.975l-.09-.423v-2.823c.02-.069.042-.137.061-.207a2.417 2.417 0 0 1 2.291-2.016c.466-.058.937-.071 1.406-.1a1.158 1.158 0 0 0 1.071-.733c.252-.6.508-1.2.742-1.806a1.132 1.132 0 0 0-.183-1.191c-.351-.43-.709-.854-1.047-1.293a2.418 2.418 0 0 1 .139-3.383q.821-.89 1.7-1.729a2.147 2.147 0 0 1 3.381.037 2.783 2.783 0 0 0 3.851.486 1.858 1.858 0 0 0 1.009-1.7 10.357 10.357 0 0 1 .315-1.991 1.581 1.581 0 0 1 1.184-1.16c.335-.1.681-.153 1.021-.229Zm1.121 8.607a8.96 8.96 0 0 0-3.431.632 9.939 9.939 0 0 0-6 11.423 9.687 9.687 0 0 0 19-3.763 9.639 9.639 0 0 0-9.575-8.294Z" data-name="Caminho 6"/>
                <path d="M3183.077 240.718a5.365 5.365 0 1 1-5.365-5.507 5.448 5.448 0 0 1 5.365 5.507Z" data-name="Caminho 7"/>
            </g>
        </g>
    </g>
</svg>