<svg xmlns="http://www.w3.org/2000/svg" width="50" height="50">
    <g data-name="Grupo 8384" transform="translate(-247 -1199)">
        <circle cx="24.5" cy="24.5" r="24.5" fill="#0071b6" data-name="Elipse 11" transform="translate(247 1199)"/>
        <g fill="#fff">
            <path d="m281.384 1228.925 4.18 7.236-4.565-.9a.553.553 0 0 0-.628.362l-1.5 4.4-4.093-7.085a13.258 13.258 0 0 0 6.606-4.013ZM261.623 1228.923a13.251 13.251 0 0 0 6.606 4.017l-4.092 7.083-1.5-4.4a.553.553 0 0 0-.628-.362l-4.565.9Z"/>
            <path d="M271.501 1207.947a12.148 12.148 0 1 0 12.146 12.15 12.141 12.141 0 0 0-12.146-12.15Zm0 2.21a9.939 9.939 0 1 1-9.936 9.94 9.948 9.948 0 0 1 9.936-9.94Zm0 1.1a8.834 8.834 0 1 0 8.832 8.836 8.829 8.829 0 0 0-8.832-8.836Zm0 2.686a.6.6 0 0 1 .563.277 29.177 29.177 0 0 1 1.716 2.609 23.833 23.833 0 0 1 3.008.823.633.633 0 0 1 .437.453 1.079 1.079 0 0 1-.338 1.01c-.531.679-1.136 1.386-1.7 2.046a26.262 26.262 0 0 1 .147 3.115.6.6 0 0 1-.294.554.608.608 0 0 1-.62.11 29.339 29.339 0 0 1-2.918-1.1 26.88 26.88 0 0 1-2.918 1.107.717.717 0 0 1-.913-.664 26.117 26.117 0 0 1 .147-3.115 25.477 25.477 0 0 1-1.953-2.437.6.6 0 0 1-.085-.619.6.6 0 0 1 .436-.453 25.128 25.128 0 0 1 3.009-.825 24.964 24.964 0 0 1 1.717-2.609.6.6 0 0 1 .559-.278Zm0 1.34c-.155.218-.34.506-.529.815-.248.407-.533.888-.824 1.317a.937.937 0 0 1-.277.306.913.913 0 0 1-.37.167c-.812.218-1.624.385-2.446.628.462.588 1.082 1.288 1.606 1.947a1 1 0 0 1 .248.763c-.039.843-.132 1.664-.158 2.522.792-.3 1.551-.626 2.352-.928a.9.9 0 0 1 .4-.086 27.338 27.338 0 0 1 2.751 1.015c-.039-.846-.118-1.667-.158-2.522a.929.929 0 0 1 .045-.408.917.917 0 0 1 .2-.355c.525-.658 1.088-1.263 1.606-1.947-.815-.228-1.62-.407-2.446-.628a.906.906 0 0 1-.371-.167.937.937 0 0 1-.277-.306c-.462-.7-.868-1.424-1.353-2.132Z"/>
        </g>
    </g>
</svg>