<svg xmlns="http://www.w3.org/2000/svg" width="252" height="21">
    <g data-name="Camada 1" transform="translate(328.982 -.241)">
        <g fill="#00d8ff" data-name="Grupo 1">
            <path d="M-88.155.242h1.386c.054.013.108.03.162.039a1.2 1.2 0 0 1 1.189 1.167c.042.262.058.529.076.8a.785.785 0 0 0 .322.661 5.607 5.607 0 0 0 .956.494.991.991 0 0 0 .872-.086 4.123 4.123 0 0 0 .645-.485 1.291 1.291 0 0 1 1.936-.04c.358.316.691.658 1.02 1a1.353 1.353 0 0 1 .073 1.945c-.175.213-.366.413-.545.623a.838.838 0 0 0-.118.993c.134.27.269.541.383.82a.585.585 0 0 0 .592.4 7.9 7.9 0 0 1 1.023.085 1.314 1.314 0 0 1 1.1.892c.039.109.064.223.1.335v1.676c-.029.112-.053.226-.086.337a1.205 1.205 0 0 1-1.245.931c-.112 0-.224 0-.336.007a1.438 1.438 0 0 0-1.332.873 5.049 5.049 0 0 0-.244.739.674.674 0 0 0 .19.678 7.372 7.372 0 0 1 .623.745 1.307 1.307 0 0 1-.118 1.765q-.478.517-1 1a1.364 1.364 0 0 1-2.046.01c-.176-.156-.349-.316-.526-.47a.811.811 0 0 0-.968-.125c-.3.148-.606.28-.911.419a.507.507 0 0 0-.314.47c-.012.239-.028.477-.041.716a1.508 1.508 0 0 1-1.182 1.587h-1.886a1.386 1.386 0 0 1-1.177-1.294 15.538 15.538 0 0 1-.08-.938c-.025-.4-.081-.465-.476-.589a2.553 2.553 0 0 1-.538-.223.951.951 0 0 0-1.418.2 1.667 1.667 0 0 1-.267.26 1.437 1.437 0 0 1-1.435.341 3.645 3.645 0 0 1-2-2.232.529.529 0 0 1 .05-.492 8.924 8.924 0 0 1 .585-.841 1.283 1.283 0 0 0 .284-1.4 4.907 4.907 0 0 0-.295-.61 1.046 1.046 0 0 0-.93-.536c-.2-.009-.391-.021-.586-.041a1.253 1.253 0 0 1-1.242-1.129l-.052-.24v-1.6c.012-.038.025-.076.035-.118a1.391 1.391 0 0 1 1.329-1.14c.27-.033.544-.04.816-.059a.672.672 0 0 0 .62-.415c.146-.34.295-.679.431-1.023a.629.629 0 0 0-.106-.675c-.2-.243-.411-.484-.608-.733a1.347 1.347 0 0 1 .083-1.914q.476-.5.985-.979a1.264 1.264 0 0 1 1.962.021 1.641 1.641 0 0 0 2.234.275 1.05 1.05 0 0 0 .584-.958 5.741 5.741 0 0 1 .182-1.133.907.907 0 0 1 .689-.657c.194-.054.395-.087.592-.13Zm.65 4.876a5.308 5.308 0 0 0-1.99.358 5.622 5.622 0 1 0 5.106 9.943 5.414 5.414 0 0 0 2.439-5.6 5.551 5.551 0 0 0-5.554-4.7Z" data-name="Caminho 4"/>
            <path d="M-84.369 10.742a3.115 3.115 0 1 1-3.115-3.2 3.163 3.163 0 0 1 3.115 3.2Z" data-name="Caminho 5"/>
        </g>
        <rect width="55" height="9" fill="#00d8fe" data-name="Retângulo 5" rx="4.5"
            transform="translate(-328.982 6.241)"/>
    </g>
</svg>