<svg xmlns="http://www.w3.org/2000/svg" width="84" height="84">
    <g data-name="Grupo 8392" transform="translate(-4536 -199)">
        <ellipse cx="41.5" cy="44.5" fill="#e6e6e6" data-name="Elipse 85" rx="41.5" ry="44.5" transform="translate(4536 199)"/>
        <g data-name="Grupo 54" transform="translate(2776 -56)">
            <circle cx="29.5" cy="29.5" r="29.5" fill="#0071b6" data-name="Elipse 93" transform="translate(1772 267)"/>
            <g data-name="Capa 1">
                <g fill="#fff" data-name="Grupo 8" transform="translate(1784.674 281.196)">
                    <path d="M10.696 19.577a2.917 2.917 0 1 0 2.917 2.917 2.921 2.921 0 0 0-2.917-2.917Zm.972 3.889H9.723v-1.945h1.945Z" data-name="Caminho 27"/>
                    <circle cx=".972" cy=".972" r=".972" data-name="Elipse 17" transform="translate(25.411 5.834)"/>
                    <path d="M26.383 0a6.755 6.755 0 0 0-3.873 1.222l-.005-.007L4.6 13.706l.006.008a10.689 10.689 0 1 0 14.868 14.874l.009.006 12.492-17.91-.007-.005A6.792 6.792 0 0 0 26.384 0ZM17.5 23.466h-2.041a4.82 4.82 0 0 1-.712 1.7l1.453 1.453-1.375 1.375-1.449-1.449a4.842 4.842 0 0 1-1.7.712V29.3H9.724v-2.043a4.82 4.82 0 0 1-1.7-.712l-1.453 1.449L5.2 26.619l1.449-1.449a4.842 4.842 0 0 1-.712-1.7H3.889v-1.948h2.044a4.82 4.82 0 0 1 .712-1.7L5.2 18.369l1.375-1.375 1.449 1.449a4.842 4.842 0 0 1 1.7-.712v-2.044h1.945v2.043a4.82 4.82 0 0 1 1.7.712l1.449-1.449 1.382 1.376-1.449 1.449a4.842 4.842 0 0 1 .712 1.7H17.5Zm3.887-1.022A10.705 10.705 0 0 0 10.745 11.8l8.961-6.27a6.767 6.767 0 0 0 7.953 7.953Zm4.996-12.72A2.917 2.917 0 1 1 29.3 6.807a2.921 2.921 0 0 1-2.917 2.917Z" data-name="Caminho 28"/>
                </g>
            </g>
        </g>
    </g>
</svg>