<svg xmlns="http://www.w3.org/2000/svg" width="50" height="50">
    <g data-name="Grupo 8383" transform="translate(-247 -1115)">
        <circle cx="24.5" cy="24.5" r="24.5" fill="#0071b6" data-name="Elipse 10" transform="translate(247 1115)"/>
        <g data-name="Layer 1">
            <path fill="#fff" fill-rule="evenodd" d="M281.416 1146.948a2.349 2.349 0 0 0-1.661 4.009.7.7 0 0 1 0 .985l-1.5 1.5a.7.7 0 0 1-.985 0 2.349 2.349 0 0 0-4.006 1.663.7.7 0 0 1-.7.7h-2.121a.7.7 0 0 1-.7-.7 2.348 2.348 0 0 0-4.009-1.661.7.7 0 0 1-.985 0l-1.5-1.5a.7.7 0 0 1 0-.985 2.349 2.349 0 0 0-1.661-4.009.7.7 0 0 1-.7-.7v-.717a.346.346 0 0 1 .345-.345h4.747a.344.344 0 0 1 .344.323 5.185 5.185 0 0 0 10.349 0 .344.344 0 0 1 .344-.323h4.747a.346.346 0 0 1 .345.345v.717a.7.7 0 0 1-.7.7Zm-23.678-21.498h4.526v-2.038a.207.207 0 0 0-.209-.207h-4.109a.207.207 0 0 0-.207.207v2.038Zm-2.255 15.509h32.039a.521.521 0 0 1 .52.52v1.216a.521.521 0 0 1-.52.52h-32.039a.52.52 0 0 1-.519-.52v-1.216a.521.521 0 0 1 .519-.52Zm13.207 4.622a2.84 2.84 0 0 0 5.624 0 .343.343 0 0 0-.341-.391h-4.941a.343.343 0 0 0-.341.391Zm-3.216-12.407h2.207a.208.208 0 0 1 .207.207v2.207a.208.208 0 0 1-.207.207h-2.207a.208.208 0 0 1-.207-.207v-2.206a.208.208 0 0 1 .207-.207Zm15.337 0h2.207a.208.208 0 0 1 .207.207v2.207a.208.208 0 0 1-.207.207h-2.206a.208.208 0 0 1-.207-.207v-2.206a.208.208 0 0 1 .207-.208Zm-7.668 0h2.207a.208.208 0 0 1 .207.207v2.207a.208.208 0 0 1-.207.207h-2.207a.208.208 0 0 1-.207-.207v-2.206a.208.208 0 0 1 .207-.208Zm5.42-1.6v8.209a.207.207 0 0 0 .207.207h6.294a.207.207 0 0 0 .207-.207v-9.909a.206.206 0 0 0-.26-.2l-6.29 1.7a.2.2 0 0 0-.153.2Zm-7.668 0v8.209a.207.207 0 0 0 .207.207h6.29a.207.207 0 0 0 .207-.207v-9.909a.206.206 0 0 0-.26-.2l-6.29 1.7a.2.2 0 0 0-.153.2Zm-7.668 0v8.209a.207.207 0 0 0 .207.207h6.29a.207.207 0 0 0 .207-.207v-9.909a.206.206 0 0 0-.26-.2l-6.29 1.7a.2.2 0 0 0-.153.2Zm-.963-5.159h-4.526v13.373a.207.207 0 0 0 .207.207h4.109a.207.207 0 0 0 .207-.207v-13.373Z" data-name="Caminho 318"/>
        </g>
    </g>
</svg>