<svg xmlns="http://www.w3.org/2000/svg" width="84" height="84">
    <g data-name="Grupo 8387" transform="translate(-3416 -199)">
        <circle cx="41.5" cy="41.5" r="41.5" fill="#e6e6e6" data-name="Elipse 85" transform="translate(3416 199)"/>
        <g data-name="Grupo 51" transform="translate(1787 -78.695)">
            <circle cx="29.5" cy="29.5" r="29.5" fill="#0071b6" data-name="Elipse 87"
                transform="translate(1641 289.695)"/>
            <g data-name="Camada 1">
                <g data-name="05 Popular">
                    <path fill="#fff" d="M1681.061 314.65a.244.244 0 0 0-.3-.079.258.258 0 0 0-.167.277c.021.219.034.441.036.661a3.449 3.449 0 0 1-1.008 2.461 3.316 3.316 0 0 1-2.4.981 3.408 3.408 0 0 1-2.964-1.864c-.581-1-.326-2.278-.056-3.638a12.612 12.612 0 0 0 .322-2.4c0-6.1-4.1-9.612-6.54-11.166a.259.259 0 0 0-.141-.043.274.274 0 0 0-.151.048.245.245 0 0 0-.109.26c.933 4.958-1.851 7.94-4.8 11.1-3.038 3.252-6.482 6.94-6.482 13.593a14.033 14.033 0 0 0 14.017 14.019 14.254 14.254 0 0 0 13.644-10.79 16.248 16.248 0 0 0-2.9-13.419Zm-10.393 21.216a6.976 6.976 0 0 1-5.182-1.95 7.085 7.085 0 0 1-2.185-5.092c0-3.577 1.368-6.2 5.046-9.689a.25.25 0 0 1 .175-.075.281.281 0 0 1 .12.029.252.252 0 0 1 .149.261 17.487 17.487 0 0 0 .007 3.776 4.553 4.553 0 0 0 7.645 2.934.279.279 0 0 1 .25-.072.229.229 0 0 1 .169.14 7.007 7.007 0 0 1 .533 2.673 7.117 7.117 0 0 1-6.727 7.059Z" data-name="Caminho 8"/>
                </g>
            </g>
        </g>
    </g>
</svg>