<svg xmlns="http://www.w3.org/2000/svg" width="84" height="84">
    <g data-name="Grupo 8390" transform="translate(-3976 -199)">
        <circle cx="41.5" cy="41.5" r="41.5" fill="#e6e6e6" data-name="Elipse 85" transform="translate(3976 199)"/>
        <g data-name="Grupo 8389">
            <circle cx="29.5" cy="29.5" r="29.5" fill="#0071b6" data-name="Elipse 91" transform="translate(3987 211)"/>
            <g data-name="Layer 1">
                <g fill="#fff" data-name="98">
                    <path d="M4016.102 246.856a4 4 0 0 1-2.715-1.065l-2.488 7h10.415l-2.5-7a4 4 0 0 1-2.712 1.065Z" data-name="Caminho 9"/>
                    <path d="M4016.098 245.231a2.37 2.37 0 1 0-2.37-2.37 2.369 2.369 0 0 0 2.37 2.37Z" data-name="Caminho 10"/>
                    <path d="m4012.449 240.904.049.006Z" data-name="Caminho 11"/>
                    <path d="M4012.101 242.865a4.043 4.043 0 0 1 .5-1.943l-.107-.012h.024l-.1-.011h.026l-.069-.007h.024l-14.649-1.638-.342 3.13 14.872 1.667a4.076 4.076 0 0 1-.179-1.187Zm.489-1.945h-.012Z" data-name="Caminho 12"/>
                    <path d="M4020.102 242.864a3.946 3.946 0 0 1-.537 1.992l13.822 1.553.358-3.13c-16.9-1.9-8.612-.964-13.806-1.545a4.013 4.013 0 0 1 .163 1.13Z" data-name="Caminho 13"/>
                    <path d="m4006.474 235.408-3.5 2.8 3.138.35Z" data-name="Caminho 14"/>
                    <path d="m3998.513 231.628-.447 3.96 4.407-3.513Z" data-name="Caminho 15"/>
                    <path d="m4006.791 232.555-2.033-.228-6.683 5.326 2.618.293 6.033-4.822.065-.57Z" data-name="Caminho 16"/>
                    <path d="M4025.484 231.091a.833.833 0 0 0-.6.17.824.824 0 0 0-.3.545l-.463 4.155 5.529-4.407-4.163-.463Z" data-name="Caminho 17"/>
                    <path d="m4034.607 232.115-2.675-.3-8.074 6.44-.252 2.252.423.04 10.578-8.432Z" data-name="Caminho 18"/>
                    <path d="m4034.639 241.743.374-3.35-3.724 2.976Z" data-name="Caminho 19"/>
                    <path d="m4026.33 240.808 2.683.3 6.26-4.992.3-2.683-9.245 7.375Z" data-name="Caminho 20"/>
                    <path d="m4030.949 254.924-.669.669v-5.022a.813.813 0 1 0-1.626 0v5.022l-.669-.669a.813.813 0 1 0-1.15 1.15l2.057 2.057a.813.813 0 0 0 1.151 0l2.057-2.057a.813.813 0 1 0-1.15-1.15Z" data-name="Caminho 21"/>
                    <path d="m4001.255 223.799.669-.669v5.024a.813.813 0 1 0 1.626 0v-5.024l.669.669a.813.813 0 0 0 1.15-1.15l-2.053-2.056a.813.813 0 0 0-1.151 0l-2.057 2.061a.813.813 0 0 0 1.15 1.15Z" data-name="Caminho 22"/>
                </g>
            </g>
        </g>
    </g>
</svg>