<svg xmlns="http://www.w3.org/2000/svg" width="50" height="50">
    <g data-name="Grupo 8385" transform="translate(-247 -1284)">
        <ellipse cx="24.5" cy="24" fill="#0071b6" data-name="Elipse 12" rx="24.5" ry="24"
            transform="translate(247 1284)"/>
        <g data-name="Capa 1">
            <path fill="#fff" d="M257.397 1308.639a13.786 13.786 0 0 1 6.866-11.344 1.217 1.217 0 1 1 1.229 2.1 11.361 11.361 0 0 0-5.663 9.347 1.217 1.217 0 0 1-1.215 1.165h-.053a1.217 1.217 0 0 1-1.164-1.268Zm19.2 10.721a11.466 11.466 0 0 1-5.339 1.319 11.679 11.679 0 0 1-5.6-1.486 1.217 1.217 0 1 0-1.194 2.121 13.894 13.894 0 0 0 6.8 1.8 13.616 13.616 0 0 0 6.477-1.6 1.217 1.217 0 0 0-1.143-2.148Zm.942-19.633a11.4 11.4 0 0 1 5.157 9.239 1.217 1.217 0 0 0 1.216 1.188h.029a1.217 1.217 0 0 0 1.188-1.246 13.755 13.755 0 0 0-1.789-6.469 14.04 14.04 0 0 0-4.461-4.743 1.217 1.217 0 0 0-1.338 2.033Zm9.064 18.083a2.4 2.4 0 0 1-2.1 1.241h-.04c-1.644-.027-4.779-.712-10.377-3.819a1.173 1.173 0 0 1-.612-1.25 2.968 2.968 0 0 0-.341-1.589 86.13 86.13 0 0 1-14.197 6.773 2.4 2.4 0 0 1-.767.127 2.408 2.408 0 0 1-2.065-3.658c.866-1.416 3.052-3.783 8.552-7.019a1.173 1.173 0 0 1 1.392.111 2.975 2.975 0 0 0 1.567.524 81.493 81.493 0 0 1 1.306-15.36 2.41 2.41 0 0 1 4.483-.657c1.175 2.192 1.75 5.663 1.758 10.61a1.176 1.176 0 0 1-.8 1.145 3.039 3.039 0 0 0-1.257 1.08 86 86 0 0 1 12.965 8.747 2.421 2.421 0 0 1 .534 2.995Zm-16.542-8.569a1.217 1.217 0 1 0 1.217-1.217 1.218 1.218 0 0 0-1.217 1.217Zm.05-3.459a3.6 3.6 0 0 1 .456-.122 5.685 5.685 0 0 1 2.155-2.537c-.057-4.044-.537-6.959-1.43-8.674a74.408 74.408 0 0 0-1.181 11.333Zm-1.231 6.208a3.712 3.712 0 0 1-.346-.346 5.652 5.652 0 0 1-3.266-.559c-4.906 2.967-6.544 4.965-7.048 5.758a80.343 80.343 0 0 0 10.66-4.853Zm15.549 4.625a80.222 80.222 0 0 0-9.563-6.7 3.626 3.626 0 0 1-.127.487 5.668 5.668 0 0 1 1.158 3.052c5.066 2.734 7.6 3.133 8.531 3.165Z" data-name="Caminho 319"/>
        </g>
    </g>
</svg>