<svg xmlns="http://www.w3.org/2000/svg" width="20" height="20" data-name="Camada 1">
    <path fill="#00d8ff" d="M8.001 0h1.21a1.106 1.106 0 0 0 .127.032c.293.039.59.06.88.118a8.438 8.438 0 0 1 5.144 3.141 8.421 8.421 0 0 1 1.77 6.509 8.291 8.291 0 0 1-2.014 4.45 8.469 8.469 0 0 1-5.215 2.893c-.23.036-.461.066-.693.1H8.001c-.215-.03-.43-.057-.645-.089a8.439 8.439 0 0 1-3.348-1.251.3.3 0 0 0-.278-.039c-.96.314-1.922.622-2.883.93-.087.028-.175.05-.284.081.342-1.019.672-2.01 1.009-3a.367.367 0 0 0-.047-.371 8.322 8.322 0 0 1-1.39-3.386C.08 9.8.044 9.483 0 9.162V8.051c.025-.2.046-.409.076-.612a8.508 8.508 0 0 1 2.051-4.487A8.463 8.463 0 0 1 7.308.1c.231-.038.462-.067.693-.1ZM3.615 6.314a3.5 3.5 0 0 0 .333 1.461 10.389 10.389 0 0 0 1.6 2.373 9.275 9.275 0 0 0 4.667 3.072 3.089 3.089 0 0 0 1.892.118 2.047 2.047 0 0 0 1.683-2.154.339.339 0 0 0-.211-.347c-.645-.309-1.286-.626-1.934-.928a.5.5 0 0 0-.725.2c-.163.221-.324.443-.492.66a.6.6 0 0 1-.887.231 6.817 6.817 0 0 1-3.277-2.92.357.357 0 0 1 .041-.492c.132-.16.267-.318.414-.465A.835.835 0 0 0 6.9 6.05c-.29-.591-.515-1.215-.787-1.816a.471.471 0 0 0-.288-.247 1.513 1.513 0 0 0-1.62.578 2.88 2.88 0 0 0-.588 1.75Z" data-name="Caminho 339"/>
</svg>