<svg xmlns="http://www.w3.org/2000/svg" width="460" height="471">
    <g data-name="Camada 1">
        <g data-name="Grupo 7">
            <path fill="none" stroke="#0071b6" d="M214.989.734h30.248c1.185.293 2.347.66 3.544.868 16.768 2.9 23.343 9.35 25.959 26.081.917 5.866 1.259 11.83 1.662 17.77.4 5.9 1.98 11.549 7.027 14.776a121.354 121.354 0 0 0 20.871 11.04 21.181 21.181 0 0 0 19.029-1.919A90.2 90.2 0 0 0 337.4 58.51c13.982-13.138 27.975-13.8 42.25-.9 7.81 7.052 15.081 14.715 22.268 22.414 12.564 13.468 13.065 29.136 1.589 43.472-3.813 4.766-7.993 9.24-11.892 13.933-5.659 6.807-6.477 14.189-2.579 22.194 2.933 6.037 5.879 12.087 8.36 18.332 2.4 6.037 6.416 8.7 12.918 8.873a168.475 168.475 0 0 1 22.329 1.894c11.757 1.894 20.092 8.482 24.113 19.946.855 2.432 1.393 4.974 2.078 7.48v37.581c-.623 2.505-1.161 5.048-1.87 7.528-3.935 13.6-13.077 20.581-27.169 20.813-2.444.037-4.889.024-7.333.147-13.578.709-23.6 7.015-29.124 19.506a114.739 114.739 0 0 0-5.329 16.524c-1.564 5.744.073 10.657 4.155 15.143a163.918 163.918 0 0 1 13.6 16.646c9.191 13.273 8.262 27.462-2.579 39.451q-10.431 11.549-21.73 22.3c-14.617 13.9-29.637 13.835-44.645.22-3.85-3.483-7.614-7.064-11.488-10.511-6.392-5.671-13.334-6.759-21.131-2.8-6.526 3.312-13.236 6.257-19.872 9.362-4.449 2.09-6.624 5.646-6.856 10.511-.269 5.341-.611 10.669-.9 16-.929 17.4-7.309 30.847-25.788 35.479h-41.249c-15.509-3.434-23.832-13.37-25.678-28.88-.831-6.966-1.332-13.969-1.748-20.972-.538-8.9-1.772-10.4-10.388-13.175a54.993 54.993 0 0 1-11.732-4.987c-12.992-7.883-20.557-6.942-30.957 4.363-1.858 2.017-3.593 4.29-5.817 5.805-9.46 6.465-19.555 13.077-31.324 7.626-21.693-10.071-35.968-27.23-43.546-49.889-1.247-3.74-1.222-7.529 1.088-10.987 4.216-6.294 7.883-13.053 12.759-18.785 8.078-9.508 10.694-19.713 6.209-31.4a110.821 110.821 0 0 0-6.429-13.627c-4.351-7.932-11.391-11.549-20.288-11.977-4.265-.208-8.531-.464-12.784-.917-15.937-1.719-24.191-9.333-27.254-25.001-.379-1.8-.77-3.569-1.137-5.353v-35.748c.257-.868.538-1.735.77-2.615 4.155-15.8 12.772-23.5 29-25.531 5.9-.733 11.867-.9 17.807-1.32 6.343-.44 11.048-3.312 13.566-9.276 3.19-7.6 6.429-15.179 9.4-22.867a14.329 14.329 0 0 0-2.322-15.081c-4.449-5.439-8.971-10.816-13.26-16.377-11.012-14.287-10.474-29.515 1.76-42.776q10.394-11.274 21.5-21.889c14.421-13.81 28.647-13.542 42.812.464 15.68 15.509 29.637 17.037 48.764 6.147 8.628-4.913 12.368-11.647 12.772-21.51a131.132 131.132 0 0 1 3.984-25.213c1.858-7.651 7.419-12.527 15.02-14.69 4.241-1.21 8.616-1.943 12.93-2.9Z" data-name="Caminho 6"/>
        </g>
    </g>
</svg>